<?xml version="1.0" encoding="utf-8"?>
<!-- Generator: Adobe Illustrator 26.0.1, SVG Export Plug-In . SVG Version: 6.00 Build 0)  -->
<svg version="1.1" id="Ebene_1" xmlns="http://www.w3.org/2000/svg" xmlns:xlink="http://www.w3.org/1999/xlink" x="0px" y="0px"
	 viewBox="0 0 60 60" style="enable-background:new 0 0 60 60;" xml:space="preserve">
<style type="text/css">
	.st0{fill:none;stroke:#7899E8;stroke-width:2;stroke-linecap:round;stroke-linejoin:round;stroke-miterlimit:10;}
</style>
<g id="XMLID_327_">
	<path id="XMLID_366_" class="st0" d="M14.3,33.2c-3.1-2.4-5.1-6.2-5.1-10.4c0.1-7.2,5.9-13,13.1-12.9c5.4,0,10.1,3.4,12,8.2"/>
	<line id="XMLID_365_" class="st0" x1="22.3" y1="1.8" x2="22.3" y2="5.8"/>
	<line id="XMLID_363_" class="st0" x1="5.1" y1="22.7" x2="1.1" y2="22.7"/>
	<line id="XMLID_362_" class="st0" x1="37.1" y1="8.1" x2="34.3" y2="10.9"/>
	<line id="XMLID_330_" class="st0" x1="10" y1="34.8" x2="7.2" y2="37.6"/>
	<line id="XMLID_329_" class="st0" x1="10.2" y1="10.7" x2="7.4" y2="7.9"/>
	<path id="XMLID_328_" class="st0" d="M45.9,58c7.2,0.1,13-5.7,13.1-12.9s-5.7-13-12.9-13.1c-0.2,0-0.4,0-0.6,0
		c-1.7-5.8-7-10.1-13.3-10.1c-7.7-0.1-14,6.2-14.1,13.9c0,0.8,0.1,1.6,0.2,2.4c-4.2,1.2-7.3,5-7.3,9.5c0,5.5,4.4,10,9.9,10.1
		L45.9,58z"/>
</g>
</svg>
