<?xml version="1.0" encoding="utf-8"?>
<!-- Generator: Adobe Illustrator 26.0.1, SVG Export Plug-In . SVG Version: 6.00 Build 0)  -->
<svg version="1.1" id="Ebene_1" xmlns="http://www.w3.org/2000/svg" xmlns:xlink="http://www.w3.org/1999/xlink" x="0px" y="0px"
	 viewBox="0 0 60 60" style="enable-background:new 0 0 60 60;" xml:space="preserve">
<style type="text/css">
	.st0{fill:none;stroke:#7899E8;stroke-width:2;stroke-linecap:round;stroke-linejoin:round;stroke-miterlimit:10;}
</style>
<g id="XMLID_300_">
	<path id="XMLID_91_" class="st0" d="M33.1,50.9c0,1.7-1.3,3-3,3s-3-1.3-3-3s3-6,3-6S33.1,49.3,33.1,50.9z"/>
	<path id="XMLID_92_" class="st0" d="M44.1,55.9c0,1.7-1.3,3-3,3s-3-1.3-3-3s3-6,3-6S44.1,54.3,44.1,55.9z"/>
	<path id="XMLID_93_" class="st0" d="M55.1,50.9c0,1.7-1.3,3-3,3s-3-1.3-3-3s3-6,3-6S55.1,49.3,55.1,50.9z"/>
	<path id="XMLID_94_" class="st0" d="M22.1,55.9c0,1.7-1.3,3-3,3s-3-1.3-3-3s3-6,3-6S22.1,54.3,22.1,55.9z"/>
	<path id="XMLID_95_" class="st0" d="M11.1,50.9c0,1.7-1.3,3-3,3s-3-1.3-3-3s3-6,3-6S11.1,49.3,11.1,50.9z"/>
	<g id="XMLID_298_">
		<path id="XMLID_299_" class="st0" d="M46.1,40.9c7.2,0,13-5.8,13-13s-5.8-13-13-13c-1.4,0-2.8,0.2-4.1,0.7
			C41.3,7.4,34.4,0.9,26.1,0.9c-8.8,0-16,7.2-16,16c0,1.4,0.2,2.7,0.5,4c-5.3,0.2-9.5,4.6-9.5,10c0,5.5,4.5,10,10,10H46.1z"/>
	</g>
</g>
</svg>
