<?xml version="1.0" encoding="utf-8"?>
<!-- Generator: Adobe Illustrator 26.0.1, SVG Export Plug-In . SVG Version: 6.00 Build 0)  -->
<svg version="1.1" id="Ebene_1" xmlns="http://www.w3.org/2000/svg" xmlns:xlink="http://www.w3.org/1999/xlink" x="0px" y="0px"
	 viewBox="0 0 60 60" style="enable-background:new 0 0 60 60;" xml:space="preserve">
<style type="text/css">
	.st0{fill:none;stroke:#7899E8;stroke-width:2;stroke-linecap:round;stroke-linejoin:round;stroke-miterlimit:10;}
</style>
<g id="XMLID_219_">
	<path id="XMLID_229_" class="st0" d="M1.1,47.9v-7c0-16,13-29,29-29l0,0c16,0,29,13,29,29v7"/>
	<path id="XMLID_228_" class="st0" d="M6.1,47.9v-7c0-13.3,10.7-24,24-24l0,0c13.3,0,24,10.7,24,24v7"/>
	<path id="XMLID_227_" class="st0" d="M11.1,47.9v-7c0-10.5,8.5-19,19-19l0,0c10.5,0,19,8.5,19,19v7"/>
	<path id="XMLID_226_" class="st0" d="M16.1,47.9v-7c0-7.7,6.3-14,14-14l0,0c7.7,0,14,6.3,14,14v7"/>
	<path id="XMLID_225_" class="st0" d="M21.1,47.9v-7c0-5,4-9,9-9l0,0c5,0,9,4,9,9v7"/>
</g>
</svg>
