<?xml version="1.0" encoding="utf-8"?>
<!-- Generator: Adobe Illustrator 26.0.1, SVG Export Plug-In . SVG Version: 6.00 Build 0)  -->
<svg version="1.1" id="Ebene_1" xmlns="http://www.w3.org/2000/svg" xmlns:xlink="http://www.w3.org/1999/xlink" x="0px" y="0px"
	 viewBox="0 0 60 60" style="enable-background:new 0 0 60 60;" xml:space="preserve">
<style type="text/css">
	.st0{fill:none;stroke:#537DFA;stroke-width:2;stroke-linecap:round;stroke-linejoin:round;stroke-miterlimit:10;}
</style>
<g id="XMLID_128_">
	<g id="XMLID_472_">
		<path id="XMLID_473_" class="st0" d="M46.1,41.9c7.2,0,13-5.8,13-13c0-7.2-5.8-13-13-13c-1.4,0-2.8,0.2-4.1,0.7
			C41.3,8.4,34.4,1.9,26.1,1.9c-8.8,0-16,7.2-16,16c0,1.4,0.2,2.7,0.5,4c-5.3,0.2-9.5,4.6-9.5,10c0,5.5,4.5,10,10,10H46.1z"/>
	</g>
	<g id="XMLID_83_">
		<circle id="XMLID_471_" class="st0" cx="30.1" cy="47.9" r="2"/>
		<circle id="XMLID_474_" class="st0" cx="40.1" cy="47.9" r="2"/>
		<circle id="XMLID_476_" class="st0" cx="50.1" cy="47.9" r="2"/>
		<circle id="XMLID_477_" class="st0" cx="20.1" cy="47.9" r="2"/>
		<circle id="XMLID_78_" class="st0" cx="10.1" cy="47.9" r="2"/>
		<circle id="XMLID_79_" class="st0" cx="15.1" cy="55.9" r="2"/>
		<circle id="XMLID_80_" class="st0" cx="25.1" cy="55.9" r="2"/>
		<circle id="XMLID_81_" class="st0" cx="35.1" cy="55.9" r="2"/>
		<circle id="XMLID_82_" class="st0" cx="45.1" cy="55.9" r="2"/>
	</g>
</g>
</svg>
