<?xml version="1.0" encoding="utf-8"?>
<!-- Generator: Adobe Illustrator 26.0.1, SVG Export Plug-In . SVG Version: 6.00 Build 0)  -->
<svg version="1.1" id="Ebene_1" xmlns="http://www.w3.org/2000/svg" xmlns:xlink="http://www.w3.org/1999/xlink" x="0px" y="0px"
	 viewBox="0 0 60 60" style="enable-background:new 0 0 60 60;" xml:space="preserve">
<style type="text/css">
	.st0{fill:none;stroke:#7899E8;stroke-width:2;stroke-linecap:round;stroke-linejoin:round;stroke-miterlimit:10;}
</style>
<g id="XMLID_22_">
	<g id="XMLID_332_">
		<path id="XMLID_27_" class="st0" d="M41.3,40.9H46c7.2,0,13-5.8,13-13s-5.8-13-13-13c-1.4,0-2.8,0.2-4.1,0.7
			C41.3,7.4,34.4,0.9,26.1,0.9c-8.8,0-16,7.2-16,16c0,1.4,0.2,2.7,0.5,4c-5.3,0.2-9.5,4.6-9.5,10c0,5.5,4.5,10,10,10h4.5"/>
	</g>
	<polygon id="XMLID_21_" class="st0" points="36.1,26.9 31.8,35.9 40.1,35.9 22.1,58.9 27.3,40.9 20.1,40.9 27.1,26.9 	"/>
</g>
</svg>
