<?xml version="1.0" encoding="utf-8"?>
<!-- Generator: Adobe Illustrator 26.0.1, SVG Export Plug-In . SVG Version: 6.00 Build 0)  -->
<svg version="1.1" id="Ebene_1" xmlns="http://www.w3.org/2000/svg" xmlns:xlink="http://www.w3.org/1999/xlink" x="0px" y="0px"
	 viewBox="0 0 60 60" style="enable-background:new 0 0 60 60;" xml:space="preserve">
<style type="text/css">
	.st0{fill:none;stroke:#537DFA;stroke-width:2;stroke-linecap:round;stroke-linejoin:round;stroke-miterlimit:10;}
</style>
<g id="XMLID_501_">
	<g id="XMLID_507_">
		<path id="XMLID_509_" class="st0" d="M1.4,36.3h41c4.3,0,8.2-1.8,11-4.6S58,25,58,20.7c0-4.3-1.8-8.2-4.6-11s-6.7-4.6-11-4.6
			c-4.3,0-8.2,1.8-11,4.6"/>
		<path id="XMLID_508_" class="st0" d="M1.4,32.4H18c2.2,0,4.1-0.9,5.5-2.3c1.4-1.4,2.3-3.4,2.3-5.5c0-2.2-0.9-4.1-2.3-5.5
			c-1.4-1.4-3.4-2.3-5.5-2.3c-2.2,0-4.1,0.9-5.5,2.3"/>
	</g>
	<path id="XMLID_506_" class="st0" d="M32.6,46.1c0,1.6-1.3,2.9-2.9,2.9c-1.6,0-2.9-1.3-2.9-2.9c0-1.6,2.9-5.9,2.9-5.9
		S32.6,44.5,32.6,46.1z"/>
	<path id="XMLID_505_" class="st0" d="M43.4,52.9c0,1.6-1.3,2.9-2.9,2.9c-1.6,0-2.9-1.3-2.9-2.9c0-1.6,2.9-5.9,2.9-5.9
		S43.4,51.3,43.4,52.9z"/>
	<path id="XMLID_504_" class="st0" d="M54.1,46.1c0,1.6-1.3,2.9-2.9,2.9c-1.6,0-2.9-1.3-2.9-2.9c0-1.6,2.9-5.9,2.9-5.9
		S54.1,44.5,54.1,46.1z"/>
	<path id="XMLID_503_" class="st0" d="M21.9,52.9c0,1.6-1.3,2.9-2.9,2.9c-1.6,0-2.9-1.3-2.9-2.9c0-1.6,2.9-5.9,2.9-5.9
		S21.9,51.3,21.9,52.9z"/>
	<path id="XMLID_502_" class="st0" d="M11.1,46.1c0,1.6-1.3,2.9-2.9,2.9c-1.6,0-2.9-1.3-2.9-2.9c0-1.6,2.9-5.9,2.9-5.9
		S11.1,44.5,11.1,46.1z"/>
</g>
</svg>
