<?xml version="1.0" encoding="utf-8"?>
<!-- Generator: Adobe Illustrator 26.0.1, SVG Export Plug-In . SVG Version: 6.00 Build 0)  -->
<svg version="1.1" id="Ebene_1" xmlns="http://www.w3.org/2000/svg" xmlns:xlink="http://www.w3.org/1999/xlink" x="0px" y="0px"
	 viewBox="0 0 60 60" style="enable-background:new 0 0 60 60;" xml:space="preserve">
<style type="text/css">
	.st0{fill:none;stroke:#7899E8;stroke-width:2;stroke-linecap:round;stroke-linejoin:round;stroke-miterlimit:10;}
</style>
<g id="XMLID_66_">
	<g id="XMLID_14_">
		<path id="XMLID_67_" class="st0" d="M15,31.3c-3.5-2.1-5.9-5.9-5.9-10.4c0-6.6,5.4-12,12-12c6,0,10.9,4.3,11.8,10"/>
		<line id="XMLID_59_" class="st0" x1="21.1" y1="0.9" x2="21.1" y2="4.9"/>
		<line id="XMLID_32_" class="st0" x1="5.1" y1="20.9" x2="1.1" y2="20.9"/>
		<line id="XMLID_77_" class="st0" x1="35.2" y1="6.8" x2="32.4" y2="9.6"/>
		<line id="XMLID_63_" class="st0" x1="9.7" y1="32.3" x2="6.9" y2="35.1"/>
		<line id="XMLID_61_" class="st0" x1="9.7" y1="9.6" x2="6.9" y2="6.8"/>
		<path id="XMLID_897_" class="st0" d="M46.1,32.9c7.2,0,13,5.8,13,13s-5.8,13-13,13h-25c-5.5,0-10-4.5-10-10c0-4.6,3-8.4,7.2-9.6
			c-0.1-0.8-0.2-1.6-0.2-2.4c0-7.7,6.3-14,14-14c6.3,0,11.7,4.2,13.4,10"/>
	</g>
	<g id="XMLID_892_">
		<g id="XMLID_889_">
			<path id="XMLID_891_" class="st0" d="M29.1,32.9h21c2.5,0,4.7-1,6.4-2.6c1.6-1.6,2.6-3.9,2.6-6.4s-1-4.7-2.6-6.4
				c-1.6-1.6-3.9-2.6-6.4-2.6s-4.7,1-6.4,2.6"/>
		</g>
		<path id="XMLID_890_" class="st0" d="M29.1,36.9h11c1.9,0,3.7,0.8,4.9,2.1c1.3,1.3,2.1,3,2.1,4.9s-0.8,3.7-2.1,4.9
			c-1.3,1.3-3,2.1-4.9,2.1s-3.7-0.8-4.9-2.1"/>
	</g>
</g>
</svg>
