<?xml version="1.0" encoding="utf-8"?>
<!-- Generator: Adobe Illustrator 26.0.1, SVG Export Plug-In . SVG Version: 6.00 Build 0)  -->
<svg version="1.1" id="Ebene_1" xmlns="http://www.w3.org/2000/svg" xmlns:xlink="http://www.w3.org/1999/xlink" x="0px" y="0px"
	 viewBox="0 0 60 60" style="enable-background:new 0 0 60 60;" xml:space="preserve">
<style type="text/css">
	.st0{fill:none;stroke:#7899E8;stroke-width:2;stroke-linecap:round;stroke-linejoin:round;stroke-miterlimit:10;}
</style>
<g id="XMLID_4_">
	<path id="XMLID_2_" class="st0" d="M1.1,33.9h42c4.4,0,8.4-1.8,11.3-4.7c2.9-2.9,4.7-6.9,4.7-11.3s-1.8-8.4-4.7-11.3
		s-6.9-4.7-11.3-4.7s-8.4,1.8-11.3,4.7"/>
	<path id="XMLID_5_" class="st0" d="M1.1,29.9h17c2.2,0,4.2-0.9,5.7-2.3c1.4-1.4,2.3-3.4,2.3-5.7c0-2.2-0.9-4.2-2.3-5.7
		c-1.4-1.4-3.4-2.3-5.7-2.3c-2.2,0-4.2,0.9-5.7,2.3"/>
	<path id="XMLID_7_" class="st0" d="M1.1,37.9h36c2.8,0,5.3,1.1,7.1,2.9c1.8,1.8,2.9,4.3,2.9,7.1S46,53.2,44.2,55
		c-1.8,1.8-4.3,2.9-7.1,2.9S31.8,56.8,30,55"/>
</g>
</svg>
